<svg xmlns="http://www.w3.org/2000/svg" width="1600" height="600" viewBox="0 0 1600 600">
  <defs>
    <linearGradient id="g1" x1="0" y1="0" x2="1" y2="1">
      <stop offset="0" stop-color="#2e7d5b"/>
      <stop offset="0.6" stop-color="#2e7d5b" stop-opacity="0.8"/>
      <stop offset="1" stop-color="#2e7d5b" stop-opacity="0.6"/>
    </linearGradient>
    <radialGradient id="glow" cx="100%" cy="0%" r="100%">
      <stop offset="0" stop-color="#2e7d5b" stop-opacity="0.12"/>
      <stop offset="1" stop-color="#2e7d5b" stop-opacity="0"/>
    </radialGradient>
    <filter id="blur24" x="-20%" y="-20%" width="140%" height="140%">
      <feGaussianBlur stdDeviation="24"/>
    </filter>
  </defs>

  <!-- 右上のやわらかいグロー（薄め -->
  <rect width="1600" height="600" fill="url(#glow)"/>

  <!-- ウェーブ本体（全体の不透明度を下げる） -->
  <g filter="url(#blur24)" opacity="0.55">
    <path d="M1600,0 L1600,600 L880,600 C860,460 1210,300 900,120 C1160,80 1410,40 1600,0 Z" fill="url(#g1)"/>
    <circle cx="1320" cy="120" r="180" fill="#2e7d5b" opacity="0.12"/>
    <circle cx="1500" cy="380" r="120" fill="#2e7d5b" opacity="0.10"/>
  </g>

  <!-- 幾何学モチーフ（さらに薄く） -->
  <g opacity="0.06" fill="#000">
    <rect x="1180" y="80" width="86" height="86" rx="12"/>
    <rect x="1192" y="92" width="62" height="62" fill="#fff"/>
    <rect x="1400" y="80" width="86" height="86" rx="12"/>
    <rect x="1412" y="92" width="62" height="62" fill="#fff"/>
    <rect x="1300" y="240" width="24" height="24" rx="4"/>
    <rect x="1350" y="260" width="16" height="16" rx="3"/>
    <rect x="1380" y="230" width="12" height="12" rx="3"/>
  </g>
</svg>
